<svg id="Layer_1" enable-background="new 0 0 1024 1024" viewBox="0 0 1024 1024" xmlns="http://www.w3.org/2000/svg"><g id="XMLID_50_" fill="none" stroke-miterlimit="10" stroke-width="15"><path id="XMLID_46_" d="m900.555 865.124h-777.11c-10.829 0-19.608-8.779-19.608-19.608v-667.031c0-10.829 8.779-19.608 19.608-19.608h777.11c10.829 0 19.608 8.779 19.608 19.608v667.031c0 10.829-8.779 19.608-19.608 19.608z" stroke="#0f3144"/><path id="XMLID_65_" d="m413.642 637.688v-251.376c0-7.423 8.367-11.763 14.435-7.488l178.396 125.688c5.179 3.649 5.179 11.327 0 14.975l-178.396 125.689c-6.068 4.275-14.435-.065-14.435-7.488z" stroke="#0098ff"/><g stroke="#0f3144"><path id="XMLID_63_" d="m183.597 238.876h48.005"/><path id="XMLID_64_" d="m305.357 238.876h48.005"/><path id="XMLID_66_" d="m427.117 238.876h48.005"/><path id="XMLID_68_" d="m548.878 238.876h48.005"/><path id="XMLID_69_" d="m670.638 238.876h48.005"/><path id="XMLID_70_" d="m792.398 238.876h48.005"/><path id="XMLID_79_" d="m183.597 785.124h48.005"/><path id="XMLID_76_" d="m305.357 785.124h48.005"/><path id="XMLID_75_" d="m427.117 785.124h48.005"/><path id="XMLID_73_" d="m548.878 785.124h48.005"/><path id="XMLID_72_" d="m670.638 785.124h48.005"/><path id="XMLID_71_" d="m792.398 785.124h48.005"/></g></g></svg>